<svg width="20" height="21" viewBox="0 0 20 21" fill="none" xmlns="http://www.w3.org/2000/svg">
<path d="M3.33301 10.0832V5.2601C3.33301 4.70851 3.33301 4.43272 3.37924 4.203C3.58277 3.1917 4.42655 2.40065 5.50527 2.20985C5.75031 2.1665 6.04449 2.1665 6.63284 2.1665C6.89062 2.1665 7.01952 2.1665 7.14339 2.17736C7.67744 2.22418 8.18402 2.4209 8.59697 2.74183C8.69275 2.81626 8.78389 2.90171 8.96617 3.0726L9.33301 3.4165C9.87686 3.92637 10.1488 4.1813 10.4744 4.35114C10.6533 4.44445 10.843 4.51813 11.0399 4.57074C11.3983 4.6665 11.7828 4.6665 12.552 4.6665H12.8011C14.556 4.6665 15.4334 4.6665 16.0038 5.14742C16.0562 5.19166 16.1062 5.23846 16.1534 5.28765C16.6663 5.82235 16.6663 6.64496 16.6663 8.29019V10.0832" stroke="#1D1D1D" stroke-opacity="0.7" stroke-width="1.5"/>
<path d="M8.33301 14.6665H11.6663" stroke="#1D1D1D" stroke-opacity="0.7" stroke-width="1.5" stroke-linecap="round"/>
<path d="M2.89728 15.0697C2.49965 12.8063 2.30083 11.6746 2.78256 10.8607C2.9055 10.653 3.0571 10.465 3.23257 10.3026C3.92017 9.6665 5.03158 9.6665 7.25442 9.6665H12.7456C14.9684 9.6665 16.0798 9.6665 16.7674 10.3026C16.9429 10.465 17.0945 10.653 17.2174 10.8607C17.6992 11.6746 17.5004 12.8063 17.1027 15.0697C16.8165 16.6991 16.6733 17.5138 16.1775 18.0544C16.0488 18.1947 15.9048 18.319 15.7485 18.4249C15.1458 18.8332 14.3457 18.8332 12.7456 18.8332H7.25442C5.65425 18.8332 4.85417 18.8332 4.25152 18.4249C4.09517 18.319 3.95121 18.1947 3.82255 18.0544C3.32665 17.5138 3.18353 16.6991 2.89728 15.0697Z" stroke="#1D1D1D" stroke-opacity="0.7" stroke-width="1.5"/>
</svg>
