<svg width="20" height="17" viewBox="0 0 20 17" fill="none" xmlns="http://www.w3.org/2000/svg">
<path d="M7.46844 14.2589L7.93275 13.6699L7.46844 14.2589ZM10.0003 3.08374L9.45996 3.60384C9.60135 3.75073 9.79644 3.83374 10.0003 3.83374C10.2042 3.83374 10.3993 3.75073 10.5407 3.60384L10.0003 3.08374ZM12.5322 14.2589L12.9965 14.8479L12.5322 14.2589ZM7.93275 13.6699C6.66229 12.6684 5.29504 11.7062 4.20903 10.4833C3.14873 9.28942 2.41699 7.90628 2.41699 6.11413H0.916992C0.916992 8.37441 1.86001 10.0972 3.08746 11.4794C4.28919 12.8326 5.82266 13.9166 7.00412 14.8479L7.93275 13.6699ZM2.41699 6.11413C2.41699 4.3685 3.40319 2.91111 4.73926 2.30039C6.02805 1.71128 7.77697 1.85528 9.45996 3.60384L10.5407 2.56364C8.47381 0.416224 6.05607 0.0491927 4.11566 0.936159C2.22253 1.80151 0.916992 3.8073 0.916992 6.11413H2.41699ZM7.00412 14.8479C7.42984 15.1835 7.8948 15.5479 8.36795 15.8244C8.84085 16.1007 9.39326 16.3332 10.0003 16.3332V14.8332C9.77406 14.8332 9.49313 14.7446 9.12473 14.5293C8.75657 14.3142 8.37226 14.0164 7.93275 13.6699L7.00412 14.8479ZM12.9965 14.8479C14.178 13.9166 15.7115 12.8326 16.9132 11.4794C18.1406 10.0972 19.0837 8.37441 19.0837 6.11413H17.5837C17.5837 7.90628 16.8519 9.28942 15.7916 10.4833C14.7056 11.7062 13.3384 12.6684 12.0679 13.6699L12.9965 14.8479ZM19.0837 6.11413C19.0837 3.8073 17.7781 1.80151 15.885 0.936159C13.9446 0.0491927 11.5268 0.416224 9.45996 2.56364L10.5407 3.60384C12.2237 1.85528 13.9726 1.71128 15.2614 2.30039C16.5975 2.91111 17.5837 4.3685 17.5837 6.11413H19.0837ZM12.0679 13.6699C11.6284 14.0164 11.2441 14.3142 10.8759 14.5293C10.5075 14.7446 10.2266 14.8332 10.0003 14.8332V16.3332C10.6074 16.3332 11.1598 16.1007 11.6327 15.8244C12.1059 15.5479 12.5708 15.1835 12.9965 14.8479L12.0679 13.6699Z" fill="#1D1D1D" fill-opacity="0.7"/>
</svg>
