<svg width="20" height="21" viewBox="0 0 20 21" fill="none" xmlns="http://www.w3.org/2000/svg">
<path d="M7.50195 6.33317C7.51204 4.52065 7.59242 3.53906 8.23274 2.89874C8.96497 2.1665 10.1435 2.1665 12.5005 2.1665L13.3338 2.1665C15.6909 2.1665 16.8694 2.1665 17.6016 2.89874C18.3338 3.63097 18.3338 4.80948 18.3338 7.1665L18.3338 13.8332C18.3338 16.1902 18.3338 17.3687 17.6016 18.1009C16.8694 18.8332 15.6909 18.8332 13.3338 18.8332L12.5005 18.8332C10.1435 18.8332 8.96497 18.8332 8.23274 18.1009C7.59242 17.4606 7.51204 16.479 7.50195 14.6665" stroke="#1D1D1D" stroke-opacity="0.7" stroke-width="1.5" stroke-linecap="round"/>
<path d="M12.5 10.5L1.66667 10.5M1.66667 10.5L4.58333 8M1.66667 10.5L4.58333 13" stroke="#1D1D1D" stroke-opacity="0.7" stroke-width="1.5" stroke-linecap="round" stroke-linejoin="round"/>
</svg>
