<svg width="20" height="21" viewBox="0 0 20 21" fill="none" xmlns="http://www.w3.org/2000/svg">
<path d="M1.66699 10.5002C1.66699 7.35747 1.66699 5.78612 2.6433 4.80981C3.61961 3.8335 5.19096 3.8335 8.33366 3.8335H11.667C14.8097 3.8335 16.381 3.8335 17.3573 4.80981C18.3337 5.78612 18.3337 7.35747 18.3337 10.5002C18.3337 13.6429 18.3337 15.2142 17.3573 16.1905C16.381 17.1668 14.8097 17.1668 11.667 17.1668H8.33366C5.19096 17.1668 3.61961 17.1668 2.6433 16.1905C1.66699 15.2142 1.66699 13.6429 1.66699 10.5002Z" stroke="#1D1D1D" stroke-opacity="0.7" stroke-width="1.5"/>
<path d="M5 7.1665L6.79908 8.66574C8.32961 9.94118 9.09488 10.5789 10 10.5789C10.9051 10.5789 11.6704 9.94118 13.2009 8.66574L15 7.1665" stroke="#1D1D1D" stroke-opacity="0.7" stroke-width="1.5" stroke-linecap="round"/>
</svg>
