<svg width="20" height="21" viewBox="0 0 20 21" fill="none" xmlns="http://www.w3.org/2000/svg">
<path d="M15.6243 8.59114V8.00397C15.6243 4.78003 13.1062 2.1665 10 2.1665C6.8938 2.1665 4.37573 4.78003 4.37573 8.00397V8.59114C4.37573 9.2958 4.17476 9.98469 3.79817 10.571L2.8753 12.0078C2.03235 13.3201 2.67587 15.1039 4.14197 15.5189C7.97728 16.6046 12.0227 16.6046 15.858 15.5189C17.3241 15.1039 17.9676 13.3201 17.1247 12.0078L16.2018 10.571C15.8252 9.98469 15.6243 9.2958 15.6243 8.59114Z" stroke="#1D1D1D" stroke-opacity="0.7" stroke-width="1.5"/>
<path d="M6.25 16.3335C6.79586 17.79 8.26871 18.8335 10 18.8335C11.7313 18.8335 13.2041 17.79 13.75 16.3335" stroke="#1D1D1D" stroke-opacity="0.7" stroke-width="1.5" stroke-linecap="round"/>
<path d="M10 5.5V8.83333" stroke="#1D1D1D" stroke-opacity="0.7" stroke-width="1.5" stroke-linecap="round"/>
</svg>
