<svg width="14" height="14" viewBox="0 0 14 14" fill="none" xmlns="http://www.w3.org/2000/svg">
<path d="M9.6057 8.49429H9.01547L8.80628 8.29256C9.53846 7.44084 9.97927 6.33509 9.97927 5.13221C9.97927 2.45002 7.80512 0.275879 5.12293 0.275879C2.44074 0.275879 0.266602 2.45002 0.266602 5.13221C0.266602 7.8144 2.44074 9.98854 5.12293 9.98854C6.32581 9.98854 7.43156 9.54774 8.28329 8.81555L8.48501 9.02475V9.61498L12.2207 13.3431L13.3339 12.2299L9.6057 8.49429ZM5.12293 8.49429C3.26259 8.49429 1.76086 6.99256 1.76086 5.13221C1.76086 3.27186 3.26259 1.77014 5.12293 1.77014C6.98328 1.77014 8.48501 3.27186 8.48501 5.13221C8.48501 6.99256 6.98328 8.49429 5.12293 8.49429Z" fill="white"/>
</svg>
